<?xml version="1.0" encoding="utf-8"?>
<!-- Generator: Adobe Illustrator 22.1.0, SVG Export Plug-In . SVG Version: 6.00 Build 0)  -->
<svg version="1.1" id="Layer_1" xmlns="http://www.w3.org/2000/svg" xmlns:xlink="http://www.w3.org/1999/xlink" x="0px" y="0px"
	 viewBox="0 0 237.1 207.5" style="enable-background:new 0 0 237.1 207.5;" xml:space="preserve">
<style type="text/css">
	.st0{fill:#FFFFFF;}
</style>
<g>
	<path class="st0" d="M2.9,159c1.8,2.2,2.8,3.5,3.9,4.7c9.8,10.7,19.8,21.2,29.4,32c2.7,3,5.5,4.1,9.5,4.1
		c59.5-0.1,118.9-0.1,178.4-0.1c2,0,4.3,0.3,5.9-0.6c2.1-1.2,5.2-3.3,5.3-5.1c0.5-9,0.2-18.1,0.2-27.3c-4.3-0.2-7.8-0.4-11.8-0.6
		c0-4.9,0-9.2,0-14.1c-10.5,0-20.6,0-31,0c-0.5-7.2-0.9-13.9-1.6-20.4c-0.2-2.1,1.1-5.6-3-5.6c-3.9,0.1-2.4,3.4-2.6,5.3
		c-0.6,5.5-1,11-1.1,16.4c-0.1,3.2-1.2,4.4-4.5,4.3c-7.2-0.2-14.3-0.1-21.5-0.1c-6.2,0-6.4,0.2-5.1,6.8c2.3,0.2,4.7,0.4,7.5,0.6
		c0,2.3,0,4.3,0,6.6c-1.4,0.1-2.5,0.3-3.6,0.3c-29.1,0-58.3,0.1-87.4-0.1c-2.5,0-5-1.9-7.4-3.1c-2.3-1.2-4.4-3.9-6.6-3.9
		C38.5,158.8,21.4,159,2.9,159z M121.2,3.9c-15.9,24.6-32,48-40.6,75.5c-1.8,5.8-2,12.6-0.9,18.6c3.1,17.3,13.1,29.5,30.3,34.3
		c16.5,4.7,31.1,0.3,42.5-12.7c12.2-14,14.2-29.9,7.4-47.1c-8.3-21-20.2-40.1-32.2-59.1C125.8,10.5,123.7,7.5,121.2,3.9z"/>
	<path d="M2.9,159c18.4,0,35.6-0.1,52.7,0.2c2.2,0,4.3,2.7,6.6,3.9c2.4,1.2,5,3.1,7.4,3.1c29.1,0.2,58.3,0.2,87.4,0.1
		c1.1,0,2.2-0.2,3.6-0.3c0-2.3,0-4.4,0-6.6c-2.8-0.2-5.2-0.4-7.5-0.6c-1.3-6.6-1.1-6.8,5.1-6.8c7.2,0,14.3-0.1,21.5,0.1
		c3.3,0.1,4.4-1.2,4.5-4.3c0.2-5.5,0.6-11,1.1-16.4c0.2-2-1.3-5.3,2.6-5.3c4.1-0.1,2.8,3.4,3,5.6c0.7,6.6,1,13.2,1.6,20.4
		c10.5,0,20.5,0,31,0c0,4.9,0,9.2,0,14.1c4,0.2,7.6,0.4,11.8,0.6c0,9.2,0.3,18.3-0.2,27.3c-0.1,1.9-3.1,4-5.3,5.1
		c-1.6,0.9-3.9,0.6-5.9,0.6c-59.5,0-118.9,0-178.4,0.1c-4,0-6.8-1-9.5-4.1c-9.6-10.8-19.6-21.3-29.4-32C5.7,162.5,4.7,161.2,2.9,159
		z"/>
	<path d="M121.2,3.9c2.4,3.6,4.5,6.6,6.5,9.6c12,19,23.9,38,32.2,59.1c6.8,17.2,4.8,33.1-7.4,47.1c-11.3,13-25.9,17.3-42.5,12.7
		c-17.1-4.9-27.2-17-30.3-34.3c-1.1-6-0.9-12.9,0.9-18.6C89.2,51.9,105.4,28.5,121.2,3.9z M112.1,118.6c-4-7.1-8.2-13.7-11.4-20.8
		c-3.2-7.2-5.2-14.9-7.7-22.2C87.3,91.4,95.6,110.3,112.1,118.6z"/>
	<path class="st0" d="M112.1,118.6c-16.5-8.3-24.7-27.2-19.1-43c2.5,7.4,4.5,15,7.7,22.2C103.8,104.9,108.1,111.5,112.1,118.6z"/>
</g>
</svg>
