<?xml version="1.0" encoding="utf-8"?>
<!-- Generator: Adobe Illustrator 22.1.0, SVG Export Plug-In . SVG Version: 6.00 Build 0)  -->
<svg version="1.1" id="Layer_1" xmlns="http://www.w3.org/2000/svg" xmlns:xlink="http://www.w3.org/1999/xlink" x="0px" y="0px"
	 viewBox="0 0 464.7 436.6" style="enable-background:new 0 0 464.7 436.6;" xml:space="preserve">
<style type="text/css">
	.st0{fill:#FFFFFF;}
</style>
<g>
	<path class="st0" d="M389.9,302.1c-0.1-2.1-0.3-3.5-0.3-4.8c0-35,0-70,0-105c0-41.4-22.7-73.6-61.9-87.2c-3.2-1.1-3.4-2.8-3.4-5.5
		c0.1-18.5,0-37,0-55.5c0-1.8,0-3.5,0-5.3c-7.4,0-14.2,0-21.3,0c0,20.6,0,40.9,0,61.5c-4.2,0-7.8,0-12,0c0-10.3,0-20.2,0-30.3
		c-7.4,0-14.2,0-21.5,0c0,10.4,0,20.3,0,30.4c-2,0.1-3.4,0.3-4.9,0.3c-27.5,0-55-0.1-82.5,0c-10,0.1-20.1-0.4-29.9,1.3
		c-44.9,7.6-74.9,43.6-75.1,89.2c-0.1,34.8,0,69.6,0,104.5c0,1.9,0,3.9,0,6.4c-8.5,0-16.2-0.1-24,0c-6.9,0.1-10.8,3.9-11.2,10.8
		c-0.1,2.5-0.1,5-0.1,7.5c0,6.4,0,12.9,0,19.8c-4.7,0-8.7,0-12.6,0c-9.9,0-13.4,3.5-13.4,13.6c0,10.5,0,21,0,31.5
		c0,11.5,3.4,14.8,14.9,14.8c69.5,0,139,0,208.4,0c66.3,0,132.6,0,198.9,0c8.8,0,13-4.1,13-12.7c0.1-11.8,0.1-23.7,0-35.5
		c-0.1-7.6-4.3-11.7-11.8-11.7c-4.6,0-9.2,0-14.2,0c0-9,0.1-17.3,0-25.7c-0.1-8.6-3.9-12.4-12.6-12.4
		C405,302,397.7,302.1,389.9,302.1z"/>
	<path d="M389.9,302.1c7.8,0,15.1,0,22.4,0c8.7,0.1,12.5,3.8,12.6,12.4c0.1,8.3,0,16.6,0,25.7c5,0,9.6,0,14.2,0
		c7.6,0.1,11.7,4.1,11.8,11.7c0.1,11.8,0.1,23.7,0,35.5c0,8.7-4.3,12.7-13,12.7c-66.3,0-132.6,0-198.9,0c-69.5,0-139,0-208.4,0
		c-11.5,0-14.9-3.4-14.9-14.8c0-10.5,0-21,0-31.5c0-10.1,3.5-13.6,13.4-13.6c4,0,7.9,0,12.6,0c0-6.9,0-13.4,0-19.8
		c0-2.5-0.1-5,0.1-7.5c0.4-6.9,4.3-10.7,11.2-10.8c7.8-0.1,15.6,0,24,0c0-2.5,0-4.5,0-6.4c0-34.8-0.1-69.6,0-104.5
		c0.1-45.6,30.2-81.6,75.1-89.2c9.8-1.7,19.9-1.2,29.9-1.3c27.5-0.1,55,0,82.5,0c1.5,0,2.9-0.1,4.9-0.3c0-10.1,0-20.1,0-30.4
		c7.3,0,14.2,0,21.5,0c0,10.1,0,20,0,30.3c4.2,0,7.9,0,12,0c0-20.6,0-40.8,0-61.5c7.2,0,13.9,0,21.3,0c0,1.8,0,3.6,0,5.3
		c0,18.5,0,37,0,55.5c0,2.7,0.2,4.4,3.4,5.5c39.2,13.6,62,45.8,61.9,87.2c0,35,0,70,0,105C389.6,298.6,389.8,299.9,389.9,302.1z
		 M224.6,301.8c48.2,0,95.7,0,143.4,0c0-20.7,0-41.1,0-61.7c-2,0-3.7,0-5.3,0c-36.8,0-73.7,0-110.5,0c-11.1,0-14.5-3.5-14.6-14.7
		c0-9.5,0-19,0-28.5c0-10,3.6-13.6,13.4-13.6c37,0,74,0,111,0c1.8,0,3.6,0,5.8,0c-0.3-2.7-0.4-4.9-0.9-7c-6.9-32-33.7-53.9-66.6-54
		c-44.5-0.2-89-0.2-133.5,0c-39.5,0.2-68.5,29.6-68.6,69.2c-0.1,35,0,70,0,105c0,1.8,0.2,3.5,0.2,5.4c7.4,0,14.3,0,21.8,0
		c0-2.2,0-4.2,0-6.1c0-22.3-0.3-44.7,0.1-67c0.6-32.9,30-56.5,62.2-50.4c23.2,4.4,41.1,24.8,41.7,48.4c0.5,23.2,0.2,46.3,0.3,69.5
		C224.6,297.9,224.6,299.7,224.6,301.8z M429.3,361.8c-130.8,0-261.3,0-391.7,0c0,5.8,0,11.2,0,16.6c130.7,0,261.1,0,391.7,0
		C429.3,372.8,429.3,367.5,429.3,361.8z M63.5,339.8c113.6,0,226.6,0,339.7,0c0-5.6,0-10.9,0-16.3c-113.4,0-226.4,0-339.7,0
		C63.5,329.1,63.5,334.3,63.5,339.8z M142,301.7c6.9,0,13.1,0,19.6,0c0-33.7,0-67,0-101.1c-2.2,1.1-3.8,1.8-5.3,2.7
		c-10.3,6.6-14.6,16.4-14.5,28.3c0,21.6,0,43.2,0,64.9C141.7,298.2,141.9,299.8,142,301.7z M203.2,301.8c0-25.4,0.3-50.2-0.1-75
		c-0.2-12-9.7-23.6-19.5-25.5c0,33.4,0,66.8,0,100.4C190.2,301.8,196.4,301.8,203.2,301.8z M259.4,218.1c36.6,0,72.7,0,108.6,0
		c0-4.8,0-9.2,0-13.4c-36.4,0-72.5,0-108.6,0C259.4,209.3,259.4,213.6,259.4,218.1z"/>
	<path class="st0" d="M224.6,301.8c0-2.1,0-3.9,0-5.6c0-23.2,0.3-46.3-0.3-69.5c-0.5-23.6-18.5-44-41.7-48.4
		c-32.2-6.1-61.7,17.6-62.2,50.4c-0.4,22.3-0.1,44.7-0.1,67c0,2,0,3.9,0,6.1c-7.5,0-14.4,0-21.8,0c-0.1-1.9-0.2-3.6-0.2-5.4
		c0-35-0.1-70,0-105c0.1-39.6,29.1-69,68.6-69.2c44.5-0.2,89-0.1,133.5,0c32.9,0.1,59.7,22,66.6,54c0.4,2.1,0.5,4.2,0.9,7
		c-2.2,0-4,0-5.8,0c-37,0-74,0-111,0c-9.9,0-13.4,3.6-13.4,13.6c0,9.5,0,19,0,28.5c0,11.2,3.5,14.7,14.6,14.7c36.8,0,73.7,0,110.5,0
		c1.7,0,3.3,0,5.3,0c0,20.7,0,41.1,0,61.7C320.3,301.8,272.8,301.8,224.6,301.8z"/>
	<path class="st0" d="M429.3,361.8c0,5.7,0,11,0,16.6c-130.6,0-261,0-391.7,0c0-5.4,0-10.8,0-16.6
		C168,361.8,298.4,361.8,429.3,361.8z"/>
	<path class="st0" d="M63.5,339.8c0-5.5,0-10.8,0-16.3c113.3,0,226.3,0,339.7,0c0,5.4,0,10.6,0,16.3
		C290.1,339.8,177.1,339.8,63.5,339.8z"/>
	<path class="st0" d="M142,301.7c-0.1-1.9-0.3-3.5-0.3-5.1c0-21.6,0-43.2,0-64.9c0-12,4.3-21.7,14.5-28.3c1.5-0.9,3.1-1.6,5.3-2.7
		c0,34.1,0,67.4,0,101.1C155.1,301.7,148.9,301.7,142,301.7z"/>
	<path class="st0" d="M203.2,301.8c-6.8,0-13,0-19.6,0c0-33.6,0-67,0-100.4c9.8,1.9,19.3,13.5,19.5,25.5
		C203.5,251.7,203.2,276.5,203.2,301.8z"/>
	<path class="st0" d="M259.4,218.1c0-4.5,0-8.8,0-13.4c36.1,0,72.2,0,108.6,0c0,4.3,0,8.7,0,13.4C332,218.1,296,218.1,259.4,218.1z"
		/>
</g>
<path class="st0" d="M229.5,151.2c-15.9,24.6-32,48-40.6,75.5c-1.8,5.8-2,12.6-0.9,18.6c3.1,17.3,13.1,29.5,30.3,34.3
	c16.5,4.7,31.1,0.3,42.5-12.7c12.2-14,14.2-29.9,7.4-47.1c-8.3-21-20.2-40.1-32.2-59.1C234.1,157.8,232,154.8,229.5,151.2z"/>
<path d="M229.5,151.2c2.4,3.6,4.5,6.6,6.5,9.6c12,19,23.9,38,32.2,59.1c6.8,17.2,4.8,33.1-7.4,47.1c-11.3,13-25.9,17.3-42.5,12.7
	c-17.1-4.9-27.2-17-30.3-34.3c-1.1-6-0.9-12.9,0.9-18.6C197.5,199.2,213.7,175.8,229.5,151.2z M220.4,265.9
	c-4-7.1-8.2-13.7-11.4-20.8c-3.2-7.2-5.2-14.9-7.7-22.2C195.6,238.7,203.9,257.6,220.4,265.9z"/>
<path class="st0" d="M220.4,265.9c-16.5-8.3-24.7-27.2-19.1-43c2.5,7.4,4.5,15,7.7,22.2C212.1,252.2,216.4,258.8,220.4,265.9z"/>
</svg>
