<?xml version="1.0" encoding="utf-8"?>
<!-- Generator: Adobe Illustrator 22.1.0, SVG Export Plug-In . SVG Version: 6.00 Build 0)  -->
<svg version="1.1" id="Layer_1" xmlns="http://www.w3.org/2000/svg" xmlns:xlink="http://www.w3.org/1999/xlink" x="0px" y="0px"
	 viewBox="0 0 100 125" style="enable-background:new 0 0 100 125;" xml:space="preserve">
<path d="M72.2,98.7H58h-1H14.2V21.4h58v35.4l6.4-11.5V21.6c0-3.6-2.5-6.6-6.2-6.6H14c-3.6,0-6.2,2.9-6.2,6.6V99
	c0,3.6,2.5,6.2,6.2,6.2h58.5c3.6,0,6.2-2.5,6.2-6.2V77.8l-6.4,11.5L72.2,98.7L72.2,98.7z"/>
<polygon points="88.5,38.2 86.8,41.2 86,42.5 92.5,46.2 93.2,44.9 95,41.9 "/>
<polygon points="61.2,84.5 61.2,92.3 67.8,88.3 90.7,48.6 84.2,44.9 "/>
<polygon points="28.6,86 26.5,84 24.2,86.4 21.8,84 19.8,86 22.1,88.4 19.8,90.8 21.8,92.8 24.2,90.4 26.5,92.8 28.6,90.8 
	26.2,88.4 "/>
<g>
	<rect x="30.7" y="90.4" width="25" height="1.9"/>
</g>
<g>
	<rect x="32.7" y="82.4" width="25" height="1.9"/>
</g>
<g>
	<path d="M64.9,51.2c0-0.3-0.1-0.6-0.1-0.9l0,0l0,0c-0.6-2.7-2.8-5.2-2.9-5.3c-0.2-0.2-0.5-0.3-0.7-0.3l0,0c-0.3,0-0.6,0.1-0.7,0.3
		c-0.1,0.1-2.3,2.7-2.9,5.3l0,0l0,0c-0.1,0.3-0.1,0.6-0.1,0.9c0,0,0,0,0,0.1c0,2.1,1.7,3.8,3.8,3.8C63.2,55,64.9,53.3,64.9,51.2
		L64.9,51.2z"/>
	<path d="M58.9,43.8c0.2,0.1,0.5,0.1,0.7,0.1c0.6,0,1.1-0.2,1.6-0.4c0.7-0.4,1.2-1.1,1.4-1.9c0.2-0.8,0.1-1.6-0.4-2.3
		c-0.4-0.7-1.1-1.2-1.9-1.4l-4.7-1.1c-0.1,0-0.2,0-0.3-0.1h-0.1l0,0c-0.1,0-0.1,0-0.2,0c0,0,0,0-0.1,0h-0.1c0,0-0.1,0-0.2,0h-0.1
		l0,0h-0.1h-0.1l0,0h-0.1h-0.1l0,0H54c0,0-0.1,0-0.1,0.1l0,0c0,0-0.1,0-0.1,0.1c-0.1,0-0.1,0.1-0.2,0.1c0,0,0,0-0.1,0l-8.1,5
		l-0.3-0.5c-0.1-0.2-0.4-0.4-0.6-0.4c-0.3-0.1-0.5,0-0.8,0.1l-2.4,1.5c-0.8-0.7-1.7-1-2.8-1c-0.8,0-1.5,0.2-2.2,0.6L23,50.5
		c-1,0.6-1.6,1.5-1.9,2.6c-0.2,1-0.1,2,0.4,2.9c-1.5,1.9-6.2,8.8-0.8,18.6c0.2,0.3,0.5,0.5,0.9,0.5c0.2,0,0.3,0,0.5-0.1l4.4-2.4
		c0.2-0.1,0.4-0.3,0.5-0.6s0-0.5-0.1-0.8c-2.1-3.8-1.8-6.7-1.1-8.6c0.8,0.8,1.9,1.3,3.1,1.3l0,0c0.3,0,0.7,0,1-0.1l0.5,0.8
		c0.6,1,1.5,1.6,2.6,1.9c0.3,0.1,0.7,0.1,1,0.1c0.8,0,1.5-0.2,2.2-0.6l5.2-3.2c1-0.6,1.6-1.5,1.9-2.6c0.3-1.1,0.1-2.2-0.5-3.2
		l-0.4-0.6l2-1.2c1.6-1,2.3-2.9,1.9-4.6l2.4-1.5c0.2-0.1,0.4-0.4,0.4-0.6c0.1-0.3,0-0.5-0.1-0.8l-0.3-0.5l6.8-4.2L58.9,43.8z
		 M22,72.7c-3.7-7.5-0.9-12.9,0.6-14.9l1,1.7l0.7,1.2c-1.1,2-2.1,5.7,0.3,10.6L22,72.7z M41.3,59.7c-0.1,0.6-0.5,1.1-1,1.4L35,64.3
		c-0.5,0.3-1.1,0.4-1.7,0.3c-0.6-0.1-1.1-0.5-1.4-1L31.5,63l1.3-0.8c0.6,0.4,1.5,0.8,2.9,0.8c0.2,0,0.5,0,0.7,0
		c0.5-0.1,0.9-0.5,0.9-1.1c-0.1-0.5-0.5-0.9-1.1-0.9c-0.6,0.1-1,0-1.4-0.1l5.7-3.5L41,58C41.3,58.5,41.4,59.1,41.3,59.7z M45.3,48.7
		l-2.7-4.4l1.4-0.8l0.3,0.5l0,0l2.1,3.5l0,0l0.3,0.5L45.3,48.7z"/>
</g>
</svg>
