<?xml version="1.0" encoding="utf-8"?>
<!-- Generator: Adobe Illustrator 21.0.0, SVG Export Plug-In . SVG Version: 6.00 Build 0)  -->
<svg version="1.1" id="Layer_1" xmlns="http://www.w3.org/2000/svg" xmlns:xlink="http://www.w3.org/1999/xlink" x="0px" y="0px"
	 viewBox="0 0 100 85" style="enable-background:new 0 0 100 85;" xml:space="preserve">
<style type="text/css">
	.st0{fill:#FFFFFF;stroke:#000000;stroke-width:2;stroke-miterlimit:10;}
</style>
<path d="M13,34.1h4.2v9h3v-4.2h4.2v-11h3v11H33V44h-2.2v7.9H93l-9.1,14.3H15.5c-5,0-9.1-4.1-9.1-9.1V52H13V34.1L13,34.1z"/>
<polygon points="41.3,36.1 52,36.1 52,41.8 41.3,41.8 "/>
<polygon points="54,36.1 64.7,36.1 64.7,41.8 54,41.8 "/>
<polygon points="66.7,36.1 77.4,36.1 77.4,41.8 66.7,41.8 "/>
<polygon points="41.3,44.2 52,44.2 52,49.9 41.3,49.9 "/>
<polygon points="54,44.2 64.7,44.2 64.7,49.9 54,49.9 "/>
<polygon points="66.7,44.2 77.4,44.2 77.4,49.9 66.7,49.9 "/>
<g>
	<line x1="41" y1="22" x2="72" y2="22"/>
	<g>
		<line class="st0" x1="41" y1="22" x2="62.9" y2="22"/>
		<g>
			<path d="M72,22c-4.3,1.6-9.5,4.3-12.8,7.1l2.6-7.1l-2.6-7.1C62.5,17.7,67.7,20.4,72,22z"/>
		</g>
	</g>
</g>
</svg>
