<?xml version="1.0" encoding="utf-8"?>
<!-- Generator: Adobe Illustrator 21.0.0, SVG Export Plug-In . SVG Version: 6.00 Build 0)  -->
<svg version="1.1" id="Layer_1" xmlns="http://www.w3.org/2000/svg" xmlns:xlink="http://www.w3.org/1999/xlink" x="0px" y="0px"
	 viewBox="0 0 100 101" style="enable-background:new 0 0 100 101;" xml:space="preserve">
<title>1</title>
<path d="M50,7C26.3,7,7,26.3,7,50s19.3,43,43,43s43-19.3,43-43C93,26.3,73.7,7,50,7z M71.2,82.7l-3-5.1l-3.5,2l3,5.1
	c-4.9,2.5-10.3,3.9-15.7,4.2V83h-4v5.9c-5.5-0.3-10.9-1.7-15.7-4.2l3-5.1l-3.5-2l-3,5.1c-4.6-3-8.5-6.9-11.5-11.5l5.1-3l-2-3.5
	l-5.1,3c-2.5-4.9-3.9-10.3-4.2-15.7H17v-4h-5.9c0.3-5.5,1.7-10.9,4.2-15.7l5.1,3l2-3.5l-5.1-3c3-4.6,6.9-8.5,11.5-11.5l3,5.1l3.5-2
	l-3-5.1c4.9-2.5,10.3-3.9,15.7-4.2V50h4V11.1c5.5,0.3,10.9,1.7,15.7,4.2l-3,5.1l3.5,2l3-5.1c4.6,3,8.5,6.9,11.5,11.5l-5.1,3l2,3.5
	l5.1-3c2.5,4.9,3.9,10.3,4.2,15.7H83v4h5.9c-0.3,5.5-1.7,10.9-4.2,15.7l-5.1-3l-2,3.5l5.1,3C79.7,75.8,75.8,79.7,71.2,82.7z"/>
</svg>
