<?xml version="1.0" encoding="utf-8"?>
<!-- Generator: Adobe Illustrator 21.0.0, SVG Export Plug-In . SVG Version: 6.00 Build 0)  -->
<svg version="1.1" id="Layer_1" xmlns="http://www.w3.org/2000/svg" xmlns:xlink="http://www.w3.org/1999/xlink" x="0px" y="0px"
	 viewBox="0 0 32 48.2" style="enable-background:new 0 0 32 48.2;" xml:space="preserve">
<style type="text/css">
	.st0{fill:#FFFFFF;}
	.st1{fill:none;stroke:#000000;stroke-miterlimit:10;}
</style>
<g>
	<g>
		<path d="M22.3,23.5H9.7c-0.4,0-0.8-0.3-0.8-0.7v-5.1c0-0.4,0.3-0.8,0.8-0.8h12.6c0.4,0,0.8,0.3,0.8,0.8v5.1
			C23.1,23.2,22.7,23.5,22.3,23.5z M10.4,22h11.1v-3.6H10.4V22z"/>
	</g>
	<g>
		<rect x="13.2" y="19.4" width="1.5" height="1.7"/>
	</g>
	<g>
		<rect x="17.3" y="19.4" width="1.5" height="1.7"/>
	</g>
	<g>
		<path d="M25.7,47.4L25.7,47.4c-0.8,0-1.6-0.3-2.1-0.9c-0.6-0.6-1.6-0.6-2.2,0c-0.6,0.6-1.3,0.9-2.1,0.9l0,0
			c-0.8,0-1.6-0.3-2.1-0.9c-0.6-0.6-1.6-0.6-2.2,0c-0.6,0.6-1.3,0.9-2.1,0.9l0,0c-0.8,0-1.6-0.3-2.1-0.9c-0.3-0.3-0.7-0.5-1.1-0.5
			l0,0c-0.4,0-0.8,0.2-1.1,0.5c-1.1,1.2-3.1,1.2-4.3,0c-0.6-0.6-1.6-0.6-2.2,0l-1.1-1c1.1-1.2,3.1-1.2,4.3,0C5.6,45.8,6,46,6.4,46
			l0,0c0.4,0,0.8-0.2,1.1-0.5c0.6-0.6,1.3-0.9,2.1-0.9l0,0c0.8,0,1.6,0.3,2.1,0.9c0.3,0.3,0.7,0.5,1.1,0.5l0,0
			c0.4,0,0.8-0.2,1.1-0.5c0.6-0.6,1.3-0.9,2.1-0.9l0,0c0.8,0,1.6,0.3,2.1,0.9c0.6,0.6,1.6,0.6,2.2,0c0.6-0.6,1.3-0.9,2.1-0.9l0,0
			c0.8,0,1.6,0.3,2.1,0.9c0.3,0.3,0.7,0.5,1.1,0.5l0,0c0.4,0,0.8-0.2,1.1-0.5c1.1-1.2,3.1-1.2,4.3,0l-1,1.1c-0.6-0.6-1.6-0.6-2.2,0
			C27.2,47.1,26.5,47.4,25.7,47.4z"/>
	</g>
	<g>
		<path d="M6.9,31.1c-0.2,0-0.3,0-0.4-0.1c-0.2-0.1-0.3-0.4-0.3-0.6v-7.6C6.2,22.4,6.5,22,7,22h18.3c0.4,0,0.8,0.3,0.8,0.8v7.5
			c0,0.2-0.1,0.5-0.3,0.6c-0.2,0.1-0.5,0.2-0.7,0.1L16,27.8L7.1,31C7,31,7,31.1,6.9,31.1z M16,26.2c0.1,0,0.2,0,0.3,0l8.1,2.9v-5.6
			H7.6v5.7l8.1-2.9C15.8,26.3,15.9,26.2,16,26.2z"/>
	</g>
	<g>
		<path d="M19.2,47.4c-0.8,0-1.6-0.3-2.1-0.9c-0.6-0.6-1.6-0.6-2.2,0c-1.1,1.2-3.1,1.2-4.3,0c-0.5-0.5-1.4-0.6-2-0.1L7.8,47
			L1.7,31.4L16,26.2l14.3,5.2L24.1,47l-0.8-0.6c-0.6-0.4-1.5-0.4-2,0.1C20.8,47.1,20,47.4,19.2,47.4z M16,44.6
			c0.8,0,1.6,0.3,2.1,0.9c0.6,0.6,1.6,0.6,2.2,0c0.8-0.8,2-1.1,3.1-0.7l4.9-12.5L16,27.8L3.7,32.3l4.9,12.5c1.1-0.4,2.3-0.1,3.1,0.7
			c0.6,0.6,1.6,0.6,2.2,0C14.4,44.9,15.2,44.6,16,44.6z"/>
	</g>
	<g>
		<rect x="15.2" y="27" width="1.5" height="18.4"/>
	</g>
</g>
<g>
	<line class="st0" x1="15.3" y1="0.4" x2="15.3" y2="14.7"/>
	<g>
		<line class="st1" x1="15.3" y1="0.4" x2="15.3" y2="8.6"/>
		<g>
			<path d="M15.3,14.7c-1.1-2.8-2.9-6.4-4.8-8.5l4.8,1.7l4.8-1.7C18.2,8.3,16.4,11.8,15.3,14.7z"/>
		</g>
	</g>
</g>
</svg>
