<?xml version="1.0" encoding="utf-8"?>
<!-- Generator: Adobe Illustrator 22.1.0, SVG Export Plug-In . SVG Version: 6.00 Build 0)  -->
<svg version="1.1" id="Capa_1" xmlns="http://www.w3.org/2000/svg" xmlns:xlink="http://www.w3.org/1999/xlink" x="0px" y="0px"
	 viewBox="0 0 612 612" style="enable-background:new 0 0 612 612;" xml:space="preserve">
<path d="M612,342.9l-72.2,150.6c-9,17.5-27.1,28.5-46.8,28.5H67c-7.8,0-12.9-8.3-9.4-15.3l0.2-0.4c5.8-11.4,2.3-25.4-8.1-32.8
	l-0.6-0.4c-24.2-17.3-38.6-45.2-38.6-75v-34.1h379.2v-0.2c0-11.5,9.3-20.9,20.9-20.9H612L612,342.9z M368.7,313.5H295
	c-5.8,0-10.5,1.4-10.5,3.1v33.7c0,1.7,4.7,3.1,10.5,3.1h73.7c5.8,0,10.5-1.4,10.5-3.1v-33.7C379.2,314.9,374.5,313.5,368.7,313.5z
	 M168.5,353.4h84.3c5.8,0,10.5-1.8,10.5-4v-31.9c0-2.2-4.7-4-10.5-4h-84.3c-5.8,0-10.5,1.8-10.5,4v31.9
	C158,351.6,162.7,353.4,168.5,353.4z M163.2,195.4l-26.2,21.1v136.9H31.6V216.5H0v-21.1h73.7v-30.5H46.5v-12.3h27.2V90.1h10.5v62.5
	h27.2v12.3H84.3v30.5L163.2,195.4L163.2,195.4z M117.9,282.1H83.6v31.5h34.3V282.1z M117.9,231.7H83.6v31.5h34.3V231.7z"/>
<path d="M275.9,244.6v-16.9l149.8,0c1.9,0,3.6-0.7,5-2.1c1.3-1.3,2.1-3.1,2.1-5V96.1c0-1.9-0.7-3.6-2.1-5c-1.3-1.3-3.1-2-5-2.1
	l-156.8,0c-3.9,0-7,3.1-7,7l0,148.4 M261.9,244.6l0,14v101.9c0,3.9,3.1,7,7,7c1.9,0,3.7-0.8,4.9-2.1s2.1-3,2.1-4.9l0-115.9
	 M231,329.4 M418.7,137.7l0,41.5h-32.5v34.5l-39.5,0v-34.5l-39.5,0l0,34.5h-31.4l0-34.5l31.4,0v-41.5h-31.4v-34.5h31.4v34.5h39.5
	v41.5h39.5v-41.5h-39.5l0-34.5l39.5,0l0,34.5L418.7,137.7z"/>
</svg>
