<?xml version="1.0" encoding="utf-8"?>
<!-- Generator: Adobe Illustrator 22.1.0, SVG Export Plug-In . SVG Version: 6.00 Build 0)  -->
<svg version="1.1" id="Layer_1" xmlns="http://www.w3.org/2000/svg" xmlns:xlink="http://www.w3.org/1999/xlink" x="0px" y="0px"
	 viewBox="0 0 500 432" style="enable-background:new 0 0 500 432;" xml:space="preserve">
<style type="text/css">
	.st0{fill:none;stroke:#000000;stroke-width:6.8333;stroke-miterlimit:10;}
</style>
<g>
	<polygon points="421.8,171.3 412.6,165.9 412.6,176.5 421.8,182 	"/>
	<polygon points="409.3,164 341.7,125.8 341.7,136.4 409.3,174.7 	"/>
	<polygon points="330.5,130.1 338.5,134.6 338.5,123.9 330.5,119.4 	"/>
	<path d="M481.3,188l-20.1-10.8v-25c0-2.2-1.2-4.2-3-5.2l-44.8-25.3V95.8c0-2.2-1.2-4.2-3.1-5.2L393.3,81c-1.8-1-4.1-1-5.9,0
		l-17.4,9.8c-1.7,0.9-2.8,2.6-3,4.5l-16.1-9.1c-1.8-1-4-1-5.8,0l-25,13.7c-1.9,1.1-3.1,3.1-3.1,5.3v30c0,2.2,1.2,4.2,3,5.2l12,6.8
		v12.4l-6.1-3.5c-1.7-1-3.7-1.1-5.5-0.3l-11.9,5.5l-18.6-12.7c-1.9-1.3-4.4-1.4-6.4-0.2L154,224.6c-1.8,1.1-3,3-3,5.2v25.8
		L101.2,285L81,278.8c-1.7-0.5-3.5-0.3-5,0.7c-58.9,37.1-60,76.8-60,78.5c0,1.8,0.8,3.5,2.1,4.6c1.9,1.7,4.2,3.7,6.8,6.2
		c17.1,15.9,48.8,45.4,97.7,45.4c24.5,0,50.8-7.5,78-22.2c0,0,0.1,0,0.1-0.1l268.6-152.3c1.3-0.8,2.3-2,2.8-3.5l12.3-41
		C485,192.3,483.8,189.3,481.3,188z M465.8,214.8L198.1,365.5c-52.5,28.5-99,27.9-130.6,21.4c-8-4.6-14.9-9.9-21-14.9
		c7.4,1.2,16.3,2.1,26.9,2.1c26.5,0,63.1-5.5,111.2-24.1l15.9,4.7c1.6,0.5,3.2,0.3,4.6-0.5l263.4-148.4L465.8,214.8z M343.9,154
		l68.9,39v16l-68.9-42.4V154z M401.4,125.1v4.8l-5.5,3.1v-23.9l5.5-3.1L401.4,125.1C401.4,125.1,401.4,125.1,401.4,125.1z
		 M380.4,107.2l3.5,1.9v23.6l-3.5-1.9V107.2z M410.3,138.8c1.4-0.8,2.4-2,2.8-3.5l30,17l-12.2,7l-28.5-16.1L410.3,138.8z
		 M449.2,179.1l-12.3,7v-16.4l12.3-7.1V179.1z M428,201.6c0.9,0.5,1.9,0.8,3,0.8c1,0,2-0.3,3-0.8l2.1-1.2v1.9l-11.1,5.7v-8.2
		L428,201.6z M466,193.4l-18.1,10.2v-10l8.9-5.1L466,193.4z M390.3,93.1l4.8,2.7l-5.2,2.9l-4.8-2.7L390.3,93.1z M347.8,98.3
		l20.6,11.7v14l-33.2-18.8L347.8,98.3z M328.9,131.7v-16.2l96,54.2V186l-84-47.6l0,0h0L328.9,131.7z M163,252.7v-14.1l54.9,31v13.1
		L163,252.7z M300.8,214.5l-54.1-30.6l14.6-8.6l-0.5,0.9l53.5,30.5L300.8,214.5z M288.8,221.5l-13.8,8L221.1,199l13.6-8L288.8,221.5
		z M263,236.5l-13.8,8l-53.7-30.4l13.8-8.1L263,236.5z M237.1,251.5l-13.2,7.7l-53.6-30.3l13.2-7.8L237.1,251.5z M229.9,269.6
		l14-8.1v12.8l-14,8.1V269.6z M255.9,254.5l14.1-8.2v12.8l-14.1,8.2V254.5z M282,239.3l14.2-8.2v12.8l-14.2,8.3V239.3z M308.2,224.1
		l13.9-8.1v12.8l-13.9,8.1V224.1z M334.1,209l9-5.2v12.8l-9,5.2V209z M326.3,199.7l-54-30.8l12.9-7.6l52.3,31.9L326.3,199.7z
		 M159.5,264.5l61.6,33.6c0.9,0.5,1.9,0.7,2.9,0.7c1,0,2.1-0.3,3-0.8l125.2-72.8c1.8-1.1,3-3.1,3-5.2v-26.6c0-2.1-1.1-4-2.9-5.1
		l-31.6-19.3l1.9-0.9l12.3,7.1l78.2,48.1L201.4,342.4l-15.5-4.5c-0.1,0-0.2,0-0.3-0.1l-76.7-43.4L159.5,264.5z M79.4,291.5
		l90.4,51.2c-50.5,18.1-86.1,20.4-107.7,19c-17.5-1.2-28.6-5-33.7-7.2C30.2,345,38.6,318.2,79.4,291.5z M194.7,381.4
		c-25.4,13.8-49.7,20.8-72.2,20.8c-10.2,0-19.5-1.4-28.1-3.8c3,0.1,6.1,0.2,9.3,0.2c28.2,0,61.8-6.3,98.2-26.1l260.5-146.6l-1.3,4.4
		L194.7,381.4z"/>
	<ellipse cx="121.1" cy="379" rx="10.2" ry="6.4"/>
</g>
<polyline class="st0" points="89.7,267 87.8,133 374.7,307 374.7,369 "/>
</svg>
