<?xml version="1.0" encoding="iso-8859-1"?>
<!-- Generator: Adobe Illustrator 19.0.0, SVG Export Plug-In . SVG Version: 6.00 Build 0)  -->
<svg version="1.1" id="Capa_1" xmlns="http://www.w3.org/2000/svg" xmlns:xlink="http://www.w3.org/1999/xlink" x="0px" y="0px"
	 viewBox="0 0 512 512" style="enable-background:new 0 0 512 512;" xml:space="preserve">
<g>
	<g>
		<path d="M504.242,449.939h-51.2l-13.964-229.624c13.188-10.861,21.721-27.152,21.721-44.994c0-31.806-26.376-58.182-58.182-58.182
			c-3.103,0-6.206,0-8.533,0.776L214.109,38.788C206.352,16.291,185.406,0,160.582,0c-31.03,0-56.63,25.6-56.63,57.406
			c0,26.376,18.618,48.873,43.442,55.079v12.412c0,4.655,3.103,7.758,7.758,7.758c10.085,0,18.618,8.533,18.618,18.618
			c0,3.879-1.552,7.758-3.879,10.861l-14.739-9.309c-2.327-1.552-6.206-1.552-8.533,0l-10.085,6.982
			c-0.776-0.776-1.552-1.552-1.552-2.327c-2.327-3.879-6.982-5.43-10.861-3.103c-3.879,2.327-5.43,6.982-3.103,10.861
			c0.776,1.552,1.552,2.327,2.327,3.879L3.103,249.018C1.552,250.57,0,252.897,0,255.224v175.321c0,4.655,3.103,7.758,7.758,7.758
			h292.461c4.655,0,7.758-3.103,7.758-7.758V255.224c0-2.327-1.552-5.43-3.879-6.206l-121.794-78.352
			c3.879-5.43,6.206-12.412,6.206-19.394c0-16.291-11.636-29.479-26.376-33.358v-3.879c12.412,0,23.273-4.655,32.582-11.636
			l149.721,79.903c1.552,15.515,10.085,28.703,20.945,38.012l-13.964,229.624h-52.752c-4.655,0-7.758,3.103-7.758,7.758v46.545
			c0,4.655,3.103,7.758,7.758,7.758h205.576c4.655,0,7.758-3.103,7.758-7.758v-46.545C512,453.818,508.121,449.939,504.242,449.939z
			 M46.545,422.788h-31.03V262.982h31.03V422.788z M96.194,422.788H62.061V262.982h34.133V422.788z M145.842,422.788h-34.133
			V262.982h34.133V422.788z M195.491,422.788h-34.133V262.982h34.133V422.788z M244.364,422.788H210.23V262.982h34.133V422.788z
			 M292.461,422.788h-32.582V262.982h32.582V422.788z M273.842,247.467H33.358L134.982,179.2
			c12.412,7.758,24.049,7.758,34.909,2.327L273.842,247.467z M160.582,99.297c-23.273-0.776-41.115-19.394-41.115-41.891
			c0-23.273,18.618-41.891,41.115-41.891c22.497,0,41.115,18.618,41.115,41.891S183.079,99.297,160.582,99.297z M206.352,91.539
			c6.982-10.085,10.861-21.721,10.861-34.133l155.151,68.267c-13.964,8.533-24.048,22.497-27.151,39.564L206.352,91.539z
			 M359.952,175.321c0-23.273,19.394-42.667,42.667-42.667c23.273,0,42.667,19.394,42.667,42.667
			c0,23.273-19.394,42.667-42.667,42.667C379.345,217.988,359.952,198.594,359.952,175.321z M437.527,449.939h-70.594
			l13.964-220.315c6.982,2.327,13.964,3.879,21.721,3.879s14.739-1.552,21.721-3.879L437.527,449.939z M496.485,496.485H306.424
			v-31.03c0,0,175.321,0,190.061,0V496.485z"/>
	</g>
</g>
<g>
	<g>
		<path d="M402.618,148.945c-14.739,0-26.376,11.636-26.376,26.376s11.636,26.376,26.376,26.376
			c14.739,0,26.376-11.636,26.376-26.376S417.358,148.945,402.618,148.945z M402.618,186.182c-6.206,0-10.861-4.655-10.861-10.861
			s4.655-10.861,10.861-10.861c6.206,0,10.861,4.655,10.861,10.861S408.824,186.182,402.618,186.182z"/>
	</g>
</g>
<g>
	<g>
		<path d="M160.582,31.03c-14.739,0-26.376,11.636-26.376,26.376s11.636,26.376,26.376,26.376c14.739,0,26.376-12.412,26.376-26.376
			C186.958,42.667,175.321,31.03,160.582,31.03z M160.582,68.267c-6.206,0-10.861-5.43-10.861-10.861
			c0-6.206,4.655-10.861,10.861-10.861s10.861,4.655,10.861,10.861S166.788,68.267,160.582,68.267z"/>
	</g>
</g>
<g>
</g>
<g>
</g>
<g>
</g>
<g>
</g>
<g>
</g>
<g>
</g>
<g>
</g>
<g>
</g>
<g>
</g>
<g>
</g>
<g>
</g>
<g>
</g>
<g>
</g>
<g>
</g>
<g>
</g>
</svg>
