<?xml version="1.0" encoding="utf-8"?>
<!-- Generator: Adobe Illustrator 22.1.0, SVG Export Plug-In . SVG Version: 6.00 Build 0)  -->
<svg version="1.1" id="Layer_1" xmlns="http://www.w3.org/2000/svg" xmlns:xlink="http://www.w3.org/1999/xlink" x="0px" y="0px"
	 viewBox="0 0 33.1 38.9" style="enable-background:new 0 0 33.1 38.9;" xml:space="preserve">
<title>Asset 10</title>
<g id="Layer_2_1_">
	<g id="Layer_1-2">
		<path d="M5.7,5V1.6C5.7,0.7,4.9,0,4.1,0S2.5,0.7,2.5,1.6V5H5.7z"/>
		<path d="M2.5,17.7v19.6c0,0.9,0.7,1.6,1.6,1.6s1.6-0.7,1.6-1.6V17.7H2.5z"/>
		<path d="M1.4,7.1h5.3c0.8,0,1.4,0.6,1.4,1.4v6c0,0.8-0.6,1.4-1.4,1.4H1.4c-0.8,0-1.4-0.6-1.4-1.4v-6C0,7.7,0.6,7.1,1.4,7.1z"/>
		<path d="M18.5,20.9V1.6c0-0.9-0.8-1.7-1.7-1.7c-0.9,0-1.7,0.8-1.7,1.7v19.3H18.5z"/>
		<path d="M14.8,33v4.3c0.1,0.9,0.9,1.6,1.8,1.5c0.8-0.1,1.5-0.7,1.5-1.5V33H14.8z"/>
		<path d="M13.6,22.4h5.3c0.8,0,1.4,0.6,1.4,1.4v6c0,0.8-0.6,1.4-1.4,1.4h-5.3c-0.8,0-1.4-0.6-1.4-1.4v-6
			C12.2,23.1,12.9,22.4,13.6,22.4z"/>
		<path d="M31.2,12.1V1.6c0-0.9-0.8-1.7-1.7-1.7c-0.9,0-1.7,0.8-1.7,1.7v10.5H31.2z"/>
		<path d="M27.8,24.8v12.5c0,0.9,0.8,1.7,1.7,1.7c0.9,0,1.7-0.8,1.7-1.7V24.8H27.8z"/>
		<path d="M26.4,13.7h5.3c0.8,0,1.4,0.6,1.4,1.4v6c0,0.8-0.6,1.4-1.4,1.4h-5.3c-0.8,0-1.4-0.6-1.4-1.4v-6
			C25,14.3,25.6,13.7,26.4,13.7z"/>
	</g>
</g>
</svg>
