<svg xmlns="http://www.w3.org/2000/svg" xmlns:xlink="http://www.w3.org/1999/xlink" version="1.1" enable-background="new 0 0 100 100" xml:space="preserve" width="100" height="125"><rect id="backgroundrect" width="100%" height="100%" x="0" y="0" fill="none" stroke="none"/><g class="currentLayer" style=""><title>Layer 1</title><path d="M66.779,36.188l-3.322-0.554c-0.331-1.277-0.828-2.479-1.49-3.591l1.952-2.751c0.36-0.511,0.3-1.203-0.136-1.638  l-1.173-1.172l-1.173-1.172c-0.436-0.436-1.127-0.495-1.638-0.134L57.05,27.13c-1.128-0.676-2.36-1.186-3.683-1.501l-0.558-3.291  c-0.105-0.616-0.632-1.067-1.263-1.066l-1.668,0.001l-1.668,0.001c-0.616,0-1.157,0.451-1.262,1.068l-0.569,3.352  c-1.277,0.331-2.479,0.858-3.576,1.505l-2.706-1.967c-0.511-0.36-1.203-0.3-1.638,0.136l-1.172,1.173l-1.172,1.173  c-0.436,0.436-0.495,1.127-0.134,1.638l1.97,2.764c-0.646,1.112-1.141,2.315-1.456,3.593l-3.291,0.558  c-0.616,0.106-1.067,0.632-1.066,1.263l0.001,1.668l0.001,1.668c0,0.616,0.451,1.157,1.068,1.262l3.352,0.569  c0.331,1.277,0.858,2.479,1.505,3.576l-1.937,2.721c-0.36,0.511-0.3,1.203,0.136,1.638l1.173,1.172l1.173,1.172  c0.436,0.436,1.127,0.495,1.638,0.134l2.764-1.97c1.082,0.631,2.27,1.126,3.503,1.441l0.558,3.321  c0.105,0.616,0.632,1.067,1.263,1.066l1.668-0.001l1.668-0.001c0.616,0,1.157-0.451,1.262-1.068l0.554-3.322  c1.277-0.331,2.479-0.828,3.591-1.49l2.751,1.952c0.511,0.36,1.202,0.3,1.638-0.136l1.172-1.173l1.172-1.173  c0.436-0.436,0.495-1.127,0.134-1.638l-1.955-2.749c0.661-1.112,1.156-2.315,1.486-3.593l3.321-0.558  c0.616-0.105,1.067-0.632,1.066-1.263l-0.001-1.668l-0.001-1.668C67.831,36.818,67.38,36.293,66.779,36.188z M42.805,39.123  c-0.002-4.039,3.27-7.314,7.309-7.316c4.039-0.002,7.314,3.27,7.316,7.309c0.002,4.039-3.27,7.314-7.309,7.316  C46.083,46.434,42.807,43.162,42.805,39.123z M94.022,61.761V15.668c0-3.53-2.872-6.402-6.402-6.402H12.378  c-3.53,0-6.402,2.872-6.402,6.402v47.215c0,0.026,0.002,0.052,0.002,0.079v8.564c-0.001,0.034-0.003,0.067-0.003,0.101v0.47  c0,0.034,0.002,0.067,0.003,0.101v0.12H5.98c0.116,3.012,2.594,5.419,5.634,5.419H40.18c-0.051,1.266-0.756,7.012-9.338,8.091h0.275  c-1.355,0-2.454,1.099-2.454,2.454c0,1.355,1.099,2.454,2.454,2.454h37.627c1.355,0,2.454-1.099,2.454-2.454  c0-1.355-1.099-2.454-2.454-2.454h0.411c-8.582-1.079-9.288-6.825-9.338-8.091h28.566c3.041,0,5.518-2.407,5.634-5.419h0.008V61.759  L94.022,61.761z M50,74.553c-1.729,0-3.131-1.402-3.131-3.131c0-1.729,1.402-3.131,3.131-3.131c1.729,0,3.131,1.402,3.131,3.131  C53.131,73.151,51.729,74.553,50,74.553z M88.742,62.882c0,0.619-0.503,1.122-1.122,1.122H12.378c-0.619,0-1.122-0.503-1.122-1.122  V15.668c0-0.619,0.503-1.122,1.122-1.122H87.62c0.619,0,1.122,0.503,1.122,1.122L88.742,62.882L88.742,62.882z" id="svg_1"/></g></svg>